<svg xmlns="http://www.w3.org/2000/svg" viewBox="0 0 400 300">
  <defs>
    <linearGradient id="tverBg" x1="0%" y1="0%" x2="100%" y2="100%">
      <stop offset="0%" style="stop-color:#1e3a5f"/>
      <stop offset="100%" style="stop-color:#0f172a"/>
    </linearGradient>
  </defs>
  <rect fill="url(#tverBg)" width="400" height="300"/>
  <!-- Building silhouette -->
  <rect x="80" y="120" width="240" height="130" fill="#334155" rx="4"/>
  <rect x="100" y="100" width="200" height="150" fill="#475569" rx="4"/>
  <!-- Windows -->
  <rect x="120" y="120" width="30" height="25" fill="#60a5fa" opacity="0.6" rx="2"/>
  <rect x="160" y="120" width="30" height="25" fill="#60a5fa" opacity="0.5" rx="2"/>
  <rect x="200" y="120" width="30" height="25" fill="#60a5fa" opacity="0.7" rx="2"/>
  <rect x="240" y="120" width="30" height="25" fill="#60a5fa" opacity="0.6" rx="2"/>
  <rect x="120" y="160" width="30" height="25" fill="#60a5fa" opacity="0.5" rx="2"/>
  <rect x="160" y="160" width="30" height="25" fill="#60a5fa" opacity="0.6" rx="2"/>
  <rect x="200" y="160" width="30" height="25" fill="#60a5fa" opacity="0.5" rx="2"/>
  <rect x="240" y="160" width="30" height="25" fill="#60a5fa" opacity="0.7" rx="2"/>
  <!-- Entrance -->
  <rect x="175" y="200" width="50" height="50" fill="#1e293b" rx="2"/>
  <rect x="185" y="210" width="30" height="40" fill="#60a5fa" opacity="0.4" rx="2"/>
  <!-- Sign -->
  <rect x="140" y="85" width="120" height="20" fill="#3b82f6" rx="3"/>
  <text x="200" y="99" font-family="Arial, sans-serif" font-size="11" fill="white" text-anchor="middle" font-weight="bold">ТОЦ ТВЕРЬ</text>
  <!-- Street -->
  <rect x="0" y="250" width="400" height="50" fill="#1e293b"/>
  <line x1="0" y1="275" x2="400" y2="275" stroke="#475569" stroke-width="2" stroke-dasharray="20,10"/>
</svg>
